<svg width="203" height="43" viewBox="0 0 203 43" fill="none" xmlns="http://www.w3.org/2000/svg">
<path d="M48.9 33.6C43.1 33.6 37.7 29.2 37.7 21.4C37.7 13.6 43.1 9.09998 48.9 9.09998C54.7 9.09998 60.1 13.6 60.1 21.4C60.1 29.2 54.6 33.6 48.9 33.6ZM166.1 32.9H147.3V26.2H160.7V16.5H147.3V9.79999H166.1V32.9ZM123.6 32.9H117.5V9.79999H123.6C130 9.79999 135.2 15 135.2 21.4C135.2 27.8 130 33 123.6 33M80.9 42.5L87.7 15.5L94.5 42.5H177.9V20.6L190.8 42.5H202.6V0H190.8V21.9L177.9 0H107.6L101.9 26.1L94.5 0H80.9L73.5 26.1L67.8 0H25.1V15.2H12.2V0H0.400024V42.5H12.2V26.1H25.1V42.5H80.9Z" fill="white"/>
</svg>
