<svg width="294" height="87" viewBox="0 0 294 87" fill="none" xmlns="http://www.w3.org/2000/svg">
<path d="M18 0L0 87H90.6L108.6 0H18Z" fill="#FFFB00"/>
<mask id="mask0_17_21" style="mask-type:luminance" maskUnits="userSpaceOnUse" x="0" y="0" width="294" height="87">
<path d="M293.4 0H0V87H293.4V0Z" fill="white"/>
</mask>
<g mask="url(#mask0_17_21)">
<path d="M132.8 40.2H135.6C140.3 40.2 141.5 37.7 142.5 33.1L143.2 29.8C144.1 25.3 144.2 21.6 139.4 21.6H136.6L132.8 40.2ZM130 14.6H140.4C149.3 14.6 153 20.2 151.2 29.6L150.5 33.5C148.8 42.5 145.2 47.1 134.7 47.1H131.4L126.5 71.3H118.5L130.1 14.6H130Z" fill="white"/>
<path d="M166.4 48.1C167.1 39.2 167.7 28.4 168.2 22.3H167.9C166.6 27.3 163 39.1 160.1 48.1H166.4ZM157.5 55.8L152.3 71.4H143.8C144.9 68.5 162.7 18 163.9 14.7H176.1L173.1 71.4H164.9L165.9 55.8H157.6H157.5Z" fill="white"/>
<path d="M186.5 64.4H189.3C194.4 64.4 196.3 61.7 197.7 55.1L202.7 31.3C204 25.1 203.6 21.6 198.2 21.6H195.6L186.6 64.5L186.5 64.4ZM188.8 14.6H198.7C211.1 14.6 212.8 22.3 210.3 34L205.9 55.1C203.7 65.4 201 71.3 189.5 71.3H177.1L188.9 14.6H188.8Z" fill="white"/>
</g>
<path d="M234.6 45.1H222.8L219 63.7H233.3L230.7 71.4H209.3L221 14.6H241.6L240 22.3H227.5L224.4 37.4H236.3L234.6 45.1Z" fill="white"/>
<path d="M247.6 14.6H255.7L245.4 63.7H259.2L257 71.4H235.7L247.6 14.6Z" fill="white"/>
<path d="M260.8 37.1L259.2 45H291.8L293.4 37.1H260.8Z" fill="white"/>
<path d="M275.4 26.4L269 56.7H277.2L283.6 26.4H275.4Z" fill="white"/>
<path d="M65.3 41.8H57.6L55.9 48.7H49.5L51.2 41.8H43.5L44.9 36.1H52.6L54.3 29.2H60.7L59 36.1H66.7L65.2 41.8H65.3ZM61.8 22.5H32.9L39.4 26.5L30.3 63.6H41.7L43.5 56.1H53.2C63.4 56.1 74 50.9 75.9 39.1C77.5 29.2 71.8 22.5 61.6 22.5" fill="black"/>
</svg>
